<svg xmlns="http://www.w3.org/2000/svg" xmlns:xlink="http://www.w3.org/1999/xlink" width="146" zoomAndPan="magnify" viewBox="0 0 109.5 106.499997" height="142" preserveAspectRatio="xMidYMid meet" version="1.0"><defs><clipPath id="7773542b21"><path d="M 3.511719 0 L 105.035156 0 L 105.035156 101.523438 L 3.511719 101.523438 Z M 3.511719 0 " clip-rule="nonzero"/></clipPath></defs><g clip-path="url(#7773542b21)"><path fill="#2197bd" d="M 105.039062 86.085938 C 105.039062 94.605469 98.128906 101.511719 89.609375 101.511719 L 18.945312 101.511719 C 10.421875 101.511719 3.519531 94.605469 3.519531 86.085938 L 3.519531 15.421875 C 3.519531 6.898438 10.425781 -0.0078125 18.945312 -0.0078125 L 89.609375 -0.0078125 C 98.128906 -0.0078125 105.039062 6.898438 105.039062 15.421875 Z M 105.039062 86.085938 " fill-opacity="1" fill-rule="nonzero"/></g><path fill="#ffffff" d="M 43.660156 36.214844 C 43.660156 36.710938 43.613281 37.203125 43.515625 37.691406 C 43.417969 38.179688 43.273438 38.65625 43.082031 39.117188 C 42.894531 39.574219 42.660156 40.011719 42.382812 40.425781 C 42.105469 40.839844 41.792969 41.222656 41.4375 41.574219 C 41.085938 41.929688 40.703125 42.242188 40.289062 42.519531 C 39.875 42.796875 39.4375 43.027344 38.980469 43.21875 C 38.519531 43.410156 38.042969 43.554688 37.554688 43.652344 C 37.066406 43.75 36.574219 43.796875 36.078125 43.796875 C 35.578125 43.796875 35.085938 43.75 34.597656 43.652344 C 34.109375 43.554688 33.632812 43.410156 33.175781 43.21875 C 32.714844 43.027344 32.277344 42.796875 31.863281 42.519531 C 31.449219 42.242188 31.066406 41.929688 30.714844 41.574219 C 30.363281 41.222656 30.046875 40.839844 29.769531 40.425781 C 29.496094 40.011719 29.261719 39.574219 29.070312 39.117188 C 28.878906 38.65625 28.734375 38.179688 28.636719 37.691406 C 28.542969 37.203125 28.492188 36.710938 28.492188 36.214844 C 28.492188 35.714844 28.542969 35.222656 28.636719 34.734375 C 28.734375 34.246094 28.878906 33.769531 29.070312 33.3125 C 29.261719 32.851562 29.496094 32.414062 29.769531 32 C 30.046875 31.585938 30.363281 31.203125 30.714844 30.851562 C 31.066406 30.5 31.449219 30.183594 31.863281 29.90625 C 32.277344 29.628906 32.714844 29.398438 33.175781 29.207031 C 33.632812 29.015625 34.109375 28.871094 34.597656 28.773438 C 35.085938 28.679688 35.578125 28.628906 36.078125 28.628906 C 36.574219 28.628906 37.066406 28.679688 37.554688 28.773438 C 38.042969 28.871094 38.519531 29.015625 38.980469 29.207031 C 39.4375 29.398438 39.875 29.628906 40.289062 29.90625 C 40.703125 30.183594 41.085938 30.5 41.4375 30.851562 C 41.792969 31.203125 42.105469 31.585938 42.382812 32 C 42.660156 32.414062 42.894531 32.851562 43.082031 33.3125 C 43.273438 33.769531 43.417969 34.246094 43.515625 34.734375 C 43.613281 35.222656 43.660156 35.714844 43.660156 36.214844 Z M 43.660156 36.214844 " fill-opacity="1" fill-rule="nonzero"/><path fill="#ffffff" d="M 29.539062 49.386719 L 42.566406 49.386719 L 42.566406 91.300781 L 29.539062 91.300781 Z M 29.539062 49.386719 " fill-opacity="1" fill-rule="nonzero"/><path fill="#ffffff" d="M 50.761719 49.386719 L 63.164062 49.386719 L 63.164062 91.300781 L 50.761719 91.300781 Z M 50.761719 49.386719 " fill-opacity="1" fill-rule="nonzero"/><path fill="#ffffff" d="M 51.296875 71.703125 L 63.699219 71.703125 L 63.699219 91.300781 L 51.296875 91.300781 Z M 51.296875 71.703125 " fill-opacity="1" fill-rule="nonzero"/><path fill="#ffffff" d="M 63.699219 71.703125 C 63.699219 71.703125 63.503906 66.269531 64.9375 63.441406 C 64.9375 63.441406 66.371094 59.960938 70.878906 59.9375 C 70.878906 59.9375 76.164062 59.015625 77.679688 64.261719 C 77.679688 64.261719 78.253906 67.167969 78.253906 68.398438 C 78.253906 69.628906 78.292969 91.300781 78.292969 91.300781 L 91.28125 91.300781 L 91.28125 67.292969 C 91.28125 67.292969 92.226562 53.730469 84.085938 50.015625 C 84.085938 50.015625 70.699219 44.007812 63.4375 55.042969 C 63.4375 55.042969 61.851562 56.132812 61.632812 53.074219 C 61.414062 50.015625 59.558594 57.773438 59.503906 57.9375 C 59.449219 58.101562 61.632812 73.398438 61.632812 73.398438 Z M 63.699219 71.703125 " fill-opacity="1" fill-rule="nonzero"/></svg>